# xmcd CD database file
#
# Track frame offsets:
#	150
#	40377
#	84392
#	126227
#	164077
#	201977
#
# Disc length: 3369 seconds
#
# Revision: 0
# Processed by: cddbd v1.5.1PL0 Copyright (c) Steve Scherf et al.
# Submitted via: CDex 1.51
#
DISCID=530d2706
DTITLE=Stephen Rhodes - First Love
DYEAR=1996
DGENRE=New Age
TTITLE0=Mother of Pearl
TTITLE1=Fairest Child
TTITLE2=Love's Child
TTITLE3=Cluster of Stars
TTITLE4=Adoring Moment
TTITLE5=Oceans of Love
EXTD=YEAR: 1996
EXTT0=
EXTT1=
EXTT2=
EXTT3=
EXTT4=
EXTT5=
PLAYORDER=
